<svg xmlns="http://www.w3.org/2000/svg" viewBox="0 0 480 360" fill="none" role="img" aria-hidden="true">
  <defs>
    <linearGradient id="ad1" x1="0" y1="0" x2="1" y2="1">
      <stop offset="0%" stop-color="#0d9488"/>
      <stop offset="100%" stop-color="#0891b2"/>
    </linearGradient>
    <linearGradient id="ad2" x1="0" y1="1" x2="1" y2="0">
      <stop offset="0%" stop-color="#14b8a6" stop-opacity="0.2"/>
      <stop offset="100%" stop-color="#06b6d4" stop-opacity="0.35"/>
    </linearGradient>
  </defs>
  <rect width="480" height="360" rx="24" fill="#0f172a"/>
  <rect x="24" y="24" width="140" height="312" rx="16" fill="#1e293b"/>
  <rect x="44" y="48" width="80" height="10" rx="5" fill="#334155"/>
  <rect x="44" y="72" width="100" height="36" rx="10" fill="url(#ad1)" opacity="0.25"/>
  <rect x="44" y="120" width="100" height="8" rx="4" fill="#334155"/>
  <rect x="44" y="136" width="88" height="8" rx="4" fill="#334155"/>
  <rect x="44" y="152" width="96" height="8" rx="4" fill="#334155"/>
  <rect x="44" y="168" width="72" height="8" rx="4" fill="#334155"/>
  <rect x="180" y="24" width="276" height="80" rx="16" fill="#1e293b"/>
  <rect x="200" y="44" width="120" height="12" rx="6" fill="#475569"/>
  <rect x="200" y="64" width="180" height="8" rx="4" fill="#334155"/>
  <rect x="180" y="120" width="130" height="100" rx="14" fill="url(#ad2)" stroke="rgba(20,184,166,0.3)" stroke-width="1"/>
  <rect x="200" y="140" width="60" height="8" rx="4" fill="#64748b"/>
  <rect x="200" y="158" width="90" height="28" rx="8" fill="url(#ad1)"/>
  <rect x="326" y="120" width="130" height="100" rx="14" fill="#1e293b"/>
  <path d="M340 190 L370 160 L400 175 L430 145 L460 180" stroke="url(#ad1)" stroke-width="2.5" fill="none" stroke-linecap="round"/>
  <rect x="180" y="236" width="276" height="100" rx="14" fill="#1e293b"/>
  <rect x="200" y="256" width="240" height="8" rx="4" fill="#334155"/>
  <rect x="200" y="274" width="200" height="8" rx="4" fill="#334155"/>
  <rect x="200" y="292" width="160" height="8" rx="4" fill="#334155"/>
  <circle cx="400" cy="80" r="40" fill="url(#ad1)" opacity="0.15"/>
</svg>
